<?xml version="1.0" encoding="UTF-8" standalone="no"?>
<!-- Created with Inkscape (http://www.inkscape.org/) -->

<svg
   width="193.16399mm"
   height="116.95601mm"
   viewBox="0 0 193.16399 116.95601"
   version="1.1"
   id="svg1"
   xml:space="preserve"
   xmlns:xlink="http://www.w3.org/1999/xlink"
   xmlns="http://www.w3.org/2000/svg"
   xmlns:svg="http://www.w3.org/2000/svg"><defs
     id="defs1"><linearGradient
       id="linearGradient8"><stop
         style="stop-color:#c4c400;stop-opacity:1;"
         offset="0"
         id="stop8" /><stop
         style="stop-color:#ffff5f;stop-opacity:0.97888112;"
         offset="1"
         id="stop9" /></linearGradient><linearGradient
       xlink:href="#linearGradient8"
       id="linearGradient9"
       x1="120.87553"
       y1="132.04553"
       x2="122.35003"
       y2="132.04553"
       gradientUnits="userSpaceOnUse"
       gradientTransform="translate(13.67132,76.617468)" /></defs><g
     id="layer1"
     transform="translate(-13.67132,-76.617468)"><rect
       style="fill:#c44700;fill-opacity:1;stroke:#637a4c;stroke-width:0;stroke-linecap:round;stroke-dasharray:none;stroke-opacity:1;paint-order:stroke fill markers"
       id="rect9"
       width="12.017373"
       height="45.686386"
       x="186.68059"
       y="27.632845"
       rx="8.0149488"
       ry="0.26148018"
       transform="matrix(0.72714777,0.68648096,-0.72714777,0.68648096,0,0)" /><ellipse
       style="fill:#c44700;fill-opacity:1;stroke:#637a4c;stroke-width:0;stroke-linecap:round;stroke-dasharray:none;stroke-opacity:1;paint-order:stroke fill markers"
       id="path11"
       cx="95.119507"
       cy="177.6282"
       rx="13.130331"
       ry="11.563639" /><ellipse
       style="fill:#c44700;fill-opacity:1;stroke:#637a4c;stroke-width:0;stroke-linecap:round;stroke-dasharray:none;stroke-opacity:1;paint-order:stroke fill markers"
       id="path12"
       cx="150.72577"
       cy="117.29353"
       rx="20.901978"
       ry="14.168697"
       transform="matrix(0.86477573,0.50215828,-0.49784481,0.86726613,0,0)" /><rect
       style="fill:#c44700;fill-opacity:1;stroke:#637a4c;stroke-width:0;stroke-linecap:round;stroke-dasharray:none;stroke-opacity:1;paint-order:stroke fill markers"
       id="rect12"
       width="12.038682"
       height="45.63628"
       x="111.35119"
       y="-143.1992"
       rx="7.6981292"
       ry="0.31784496"
       transform="matrix(-0.47025343,0.88253142,-0.84841715,-0.5293282,0,0)" /><ellipse
       style="fill:#f50c0c;fill-opacity:1;stroke:#637a4c;stroke-width:0;stroke-linecap:round;stroke-dasharray:none;stroke-opacity:1;paint-order:stroke fill markers"
       id="path15"
       cx="-40.380028"
       cy="142.02716"
       rx="20.440742"
       ry="26.698925"
       transform="matrix(0.86477573,-0.50215828,0.49784481,0.86726613,0,0)" /><path
       style="fill:#849f37;fill-opacity:0;stroke:#b56d30;stroke-width:3.1;stroke-linecap:round;stroke-dasharray:none;stroke-opacity:1;paint-order:stroke fill markers"
       d="m 138.86956,127.34608 c 3.95888,-20.88962 12.97859,-43.864867 49.68973,-49.178617"
       id="path17" /><path
       style="fill:#849f37;fill-opacity:0;stroke:#b56d30;stroke-width:3.7;stroke-linecap:round;stroke-dasharray:none;stroke-opacity:1;paint-order:stroke fill markers"
       d="M 139.65103,126.54506 C 192.5636,77.064653 204.98531,85.762683 204.98531,85.762683"
       id="path16" /><path
       style="fill:#b40707;fill-opacity:1;stroke:#637a4c;stroke-width:0;stroke-linecap:round;stroke-dasharray:none;stroke-opacity:1;paint-order:stroke fill markers"
       d="m 152.55165,142.48051 c 12.0381,-1.53042 8.94127,-2.09309 12.0381,-1.53042 3.09686,0.56266 7.33531,2.16274 7.53986,3.70784 0.20467,1.54504 -7.674,3.93689 -7.674,3.93689 0,0 -10.71934,4.57763 -13.77887,1.36303 -1.82475,-1.91723 1.87491,-7.47734 1.87491,-7.47734 z"
       id="path2" /><path
       style="fill:#b40707;fill-opacity:1;stroke:#637a4c;stroke-width:0;stroke-linecap:round;stroke-dasharray:none;stroke-opacity:1;paint-order:stroke fill markers"
       d="m 150.52989,150.73154 c 11.14105,1.64696 8.27499,2.25248 11.14105,1.64696 2.86608,-0.60551 6.7887,-2.32744 6.97801,-3.99019 0.18942,-1.6627 -7.10215,-4.23668 -7.10215,-4.23668 0,0 -9.92056,-4.92623 -12.75211,-1.46683 -1.68877,2.06322 1.7352,8.04674 1.7352,8.04674 z"
       id="path5" /><ellipse
       style="fill:#f50c0c;fill-opacity:1;stroke:#a47034;stroke-width:0;stroke-linecap:round;stroke-dasharray:none;paint-order:stroke fill markers"
       id="path1"
       cx="133.8495"
       cy="142.9877"
       rx="22.295008"
       ry="18.631512" /><ellipse
       style="fill:#000000;fill-opacity:1;stroke:#7a6a4c;stroke-width:0;stroke-linecap:round;stroke-dasharray:none;stroke-opacity:1;paint-order:stroke fill markers"
       id="path3"
       cx="135.74042"
       cy="136.46893"
       rx="9.6082277"
       ry="9.0408354" /><ellipse
       style="fill:url(#linearGradient9);fill-opacity:1;stroke:#637a4c;stroke-width:0;stroke-linecap:round;stroke-dasharray:none;stroke-opacity:1;paint-order:stroke fill markers"
       id="path4"
       cx="139.13937"
       cy="132.48006"
       rx="2.9746292"
       ry="3.6777079" /></g></svg>
